<svg version="1.1" id="Слой_1" xmlns="http://www.w3.org/2000/svg" x="0" y="0" xml:space="preserve" height="44" width="200"><style>.st0{fill:#3a4145}.st1{fill:#4aa9da}</style><path class="st0" d="M54.4 13.2c-.3-1-.9-1.9-1.5-2.6-1.3-1.3-3.2-2-6.1-2.1-1.5-.1-2.9.2-4.2.9-1.3.6-2.3 1.5-2.9 2.5h-.2L39 9.5c-.1-.4-.4-.6-.8-.6h-2.4c-.4 0-.8.3-.8.8v21.2c0 .4.3.8.8.8h3.3c.4 0 .8-.3.8-.8V20.2c0-2.8.5-4.8 1.4-6 .5-.6 1.1-1.1 1.8-1.4.7-.3 1.6-.5 2.6-.5 1.5 0 2.6.4 3.3 1.3.7.9 1 2.2 1 3.9v13.2c0 .4.3.8.8.8h3.3c.2 0 .4-.1.6-.2.2-.1.3-.3.4-.4V16.8c-.2-1.4-.4-2.6-.7-3.6zM172.5 11.4c-.2-.1-.3-.2-.5-.2h-3.4c-.2 0-.4.1-.5.2-.1.1-.2.3-.2.5v18.8c0 .2.1.3.2.4.2.1.3.2.5.2h3.4c.2 0 .4-.1.5-.2.2-.1.2-.3.2-.5V11.8c0-.1-.1-.3-.2-.4zM79.2 14.1c-.4-1.2-1.1-2.3-1.9-3.2-.9-.9-1.9-1.6-3-2-1.2-.5-2.5-.7-4-.7-1.6 0-3 .3-4.3.8a8.2 8.2 0 00-3.2 2.4c-1.8 2.1-2.7 5-2.7 8.7 0 1.8.2 3.4.7 4.8.5 1.4 1.2 2.6 2.2 3.6 2 2 4.7 3.1 8.1 3.1 1.5 0 2.7-.1 4.1-.2 1.2-.3 2.2-.6 3-1 .3-.2.5-.5.5-.8v-2.1c0-.3-.1-.5-.4-.7-.2-.2-.5-.2-.8-.1-.8.3-1.6.6-2.5.8-1.2.2-2.4.4-3.7.4-1 0-1.9-.2-2.7-.5-.8-.3-1.4-.7-2-1.3-1-1-1.5-2.4-1.7-4.1 0-.3 0-.5.2-.7.2-.2.4-.3.6-.3h13.1c.5 0 .9-.4.9-.9v-1.8c.1-1.5-.1-3-.5-4.2zm-14.1 2.4c.2-1.3.7-2.4 1.4-3.2.4-.5 1-.9 1.6-1.1.6-.2 1.3-.4 2-.4.8 0 1.4.1 2 .4.6.2 1.1.6 1.6 1.1.7.7 1.1 1.8 1.3 3.2 0 .3 0 .5-.2.7-.2.2-.4.3-.6.3h-8.3c-.3 0-.5-.1-.7-.3-.1-.1-.2-.3-.2-.5.1-.1.1-.2.1-.2zM103.6 8.8c-.2-.2-.4-.3-.7-.3h-3.4c-.3 0-.6.2-.8.5l-4.4 12.6c-.9 2.8-1.3 4.4-1.4 5.3h-.1c-.1-1.3-.6-3-1.4-5.3L87.1 9c-.1-.3-.4-.5-.8-.5H83c-.3 0-.5.1-.7.3-.1.2-.2.5-.1.7l7.9 20.9c.1.2.2.3.3.4.1.1.3.1.5.1H95c.3 0 .6-.2.8-.5l8-20.9v-.3c0-.1-.1-.3-.2-.4zM124.5 12.5c-.4-1-.9-1.8-1.7-2.4-1.5-1.3-3.6-1.9-6.5-1.9-1.2 0-2.5.2-4.1.5-1.1.2-2.1.6-2.9.9-.3.1-.5.3-.6.6-.1.3-.1.6 0 .9l.6 1.3c.1.3.3.5.6.6.3.1.6.1.9 0 .7-.2 1.3-.5 2.1-.7 1.1-.3 2.2-.5 3.3-.5.7 0 1.3.1 1.8.2.5.2.9.4 1.3.8.7.7 1 1.8 1 3.2v1.2l-3.9.1c-3.5.1-6.2.8-7.9 2-1.7 1.2-2.6 2.9-2.6 5.3 0 1.1.2 2.1.5 2.9.3.8.8 1.6 1.4 2.2.6.6 1.4 1 2.3 1.3.9.3 1.9.5 2.9.5 1.7 0 3.1-.2 4.2-.7.5-.2 1.1-.6 1.7-1.1.5-.5 1.1-1 1.6-1.7h.2l.7 2.3c.1.5.6.8 1.1.8h1.3c.3 0 .6-.1.8-.4.2-.2.3-.5.3-.8V16c.1-1.4 0-2.5-.4-3.5zM111.9 27c-.6-.5-.9-1.3-.9-2.3 0-1.4.5-2.4 1.5-3 1-.7 2.6-1 4.9-1.1l1.7-.1c.3 0 .6.1.8.3.2.2.4.5.4.8v.7c0 .9-.1 1.7-.4 2.3-.3.7-.7 1.3-1.2 1.7-.5.5-1.2.9-1.9 1.1-.7.2-1.5.4-2.3.4-1.2.1-2.1-.2-2.6-.8zm3.9-15.1h-.2.2zm-.8 0h-.2.2zm-.8.1h-.2c.1.1.1.1.2 0zm-.8.2h-.2c0 .1.1 0 .2 0zM162.7 8.9c0-.3-.1-.4-.2-.5-.1-.1-.3-.2-.5-.2-.5-.1-.7-.1-1.3-.1-1.5 0-2.7.4-3.8 1.2-1.2.8-2.2 1.9-2.9 3.2h-.2l-.5-3.4c-.1-.4-.4-.6-.7-.6H150c-.4 0-.7.3-.7.8v21.2c0 .4.3.8.7.8h3.3c.4 0 .7-.3.7-.8V19.4c0-1 .2-1.9.4-2.7.3-.8.7-1.5 1.3-2.1 1.1-1.3 2.7-1.9 4.6-1.9.5 0 1 .1 1.4.1.2 0 .3 0 .5-.1s.3-.3.3-.6l.2-3.2zM172.3 3.7c-.5-.5-1.2-.7-2-.7-.9 0-1.6.2-2.1.7-.5.4-.7 1.1-.7 2 0 .8.2 1.5.7 1.9.5.4 1.2.7 2.1.7.9 0 1.5-.2 2-.7.4-.4.7-1.1.7-1.9 0-1-.2-1.6-.7-2z"/><path class="st1" d="M4.2 8.2c.3-.9 4.7-.7 6-.5 3 .6 5.5 1.3 8.7 3.8 2.8 2.3 5.5 6 4.9 9.2-.1.6-.2 1.2-.8 1.8-1.5 1.4-2.8 1.9-4.3 2.4-2.3.9-4.8 1.3-5.5 1.4-1.4.2-3.9.2-4.3 0-.6-.4.9-1 1.9-3.3.8-2.1.7-4.7.7-5.3-.8-7.8-7.8-8.1-7.3-9.5zM.2 27.9c.2-.4 2 .6 5.5 1.1 3.5.5 6.3.2 8-.1 6.9-.9 10.3-3.9 11-3 .6.9-1.7 4.4-5 6.4-4.7 2.9-9.7 1.8-11 1.5-5-1.3-8.8-5.2-8.5-5.9z"/><path class="st0" d="M143.7 27.4c-.1-.1-.3-.1-.4-.1-1 .2-2 .4-2.9.4-.9 0-1.7-.3-2.1-.8-.6-.6-.8-1.4-.8-2.6V12.7c0-.2.2-.4.4-.4h5.4c.3 0 .4-.2.4-.4V9.2c0-.3-.2-.4-.4-.4h-5.4c-.2 0-.4-.2-.4-.4v-4c0-.3-.2-.4-.4-.4H135c-.2 0-.4.1-.4.3l-1.5 4.3c0 .1-.1.1-.1.1l-.1.1-2.9 1.5c-.1.1-.2.2-.2.4V12c0 .3.2.4.4.4h2.1c.2 0 .4.2.4.4v11.6c0 1.2.1 2.2.4 3.1.3.9.7 1.6 1.3 2.2.6.6 1.3 1 2.1 1.3.8.3 1.8.4 3 .4 1 0 1.8-.1 2.6-.2.6-.1 1.2-.2 1.7-.4.2-.1.3-.3.3-.4v-2.7c-.3-.1-.3-.2-.4-.3zM199.2 14.9c-.4-1.4-1-2.7-1.8-3.7-1.5-2-3.7-3.1-6.6-3.1-3 0-5.3 1.1-6.7 3.4h-.2c-.1-.8-.3-1.4-.4-1.9 0-.1-.1-.3-.1-.4-.1-.4-.5-.7-.9-.7h-2.2c-.5 0-.9.4-.9.9V40c0 .5.4.9.9.9h2.9c.5 0 .9-.4.9-.9v-8.3c0-.4-.1-1.2-.2-2.6v-.4-.5h.3c.8 1 1.8 1.8 2.9 2.3 1.1.5 2.4.8 3.8.8s2.7-.2 3.8-.7c1.1-.5 2-1.3 2.8-2.3.8-1 1.4-2.3 1.8-3.7.4-1.4.6-3.1.6-4.9-.2-1.8-.3-3.4-.7-4.8zm-6.6 11.6c-.1.1-.2.2-.3.2l-.1.1c-.1 0-.1.1-.2.1-.6.3-1.4.5-2.2.5-1 0-1.9-.2-2.6-.5-.7-.3-1.3-.8-1.7-1.4-.4-.6-.7-1.4-1-2.4-.2-1-.3-2.2-.3-3.5v-.7c0-1.1.1-2 .2-2.8 0-.1 0-.2.1-.3 0-.1 0-.2.1-.3v-.1c.1-.2.1-.4.2-.5v-.1c.1-.2.1-.3.2-.5v-.1c.1-.1.1-.2.2-.4l.1-.1c0-.1.1-.1.1-.2.8-1.1 2.2-1.6 4.1-1.6.9 0 1.6.2 2.3.5.6.3 1.2.8 1.7 1.4.9 1.2 1.3 3.2 1.3 5.7 0 1.3-.1 2.4-.3 3.3-.2 1-.6 1.8-1 2.5 0 .1-.1.1-.1.2l-.1.1-.3.3-.1.1-.3.3c.1.1 0 .1 0 .2z"/><path fill="none" d="M0 0h200v44H0z"/></svg>
